<svg width="71" height="74" viewBox="0 0 71 74" fill="none" xmlns="http://www.w3.org/2000/svg">
<path d="M29.868 50.3374C29.868 45.3348 33.9237 41.2791 38.9263 41.2791H58.6944C63.697 41.2791 67.7527 45.3348 67.7527 50.3374V50.4626C67.6473 50.4578 67.541 50.4554 67.4343 50.4554H30.1945C30.0849 50.4554 29.9762 50.4578 29.868 50.463V50.3374Z" fill="white"/>
<path d="M29.868 64.5388V70.709C29.868 72.3765 31.2199 73.7284 32.8874 73.7284H64.7333C66.4008 73.7284 67.7527 72.3765 67.7527 70.709V64.5392C67.6473 64.5436 67.541 64.5461 67.4343 64.5461H52.918L50.9558 66.5083C48.2056 69.2584 43.7469 69.2596 40.9952 66.5111L39.0281 64.5461H30.1945C30.0849 64.5461 29.9762 64.5436 29.868 64.5388Z" fill="white"/>
<path d="M27.175 57.5006C27.175 55.8331 28.5269 54.4812 30.1944 54.4812H67.4343C69.1018 54.4812 70.4537 55.8331 70.4537 57.5006C70.4537 59.1682 69.1018 60.5201 67.4343 60.5201H51.2504L48.109 63.6615C46.9306 64.8403 45.0195 64.8407 43.8403 63.6627L40.6941 60.5201H30.1944C28.5269 60.5201 27.175 59.1682 27.175 57.5006Z" fill="white"/>
<path d="M34.6471 6.2989C33.3781 6.2989 32.2448 7.09237 31.8104 8.28473L29.5084 14.6024H47.4133C48.2656 14.6024 49.0781 14.9625 49.6505 15.5939C50.223 16.2253 50.5016 17.0693 50.4183 17.9174L48.7149 35.2353H38.9263C30.5886 35.2353 23.8293 41.9944 23.8293 50.3325V51.0588C22.1665 52.7009 21.1361 54.982 21.1361 57.5039C21.1361 60.0253 22.1665 62.3064 23.8293 63.9486V70.7041C23.8293 71.7689 24.013 72.7907 24.3506 73.74H13.7163C9.05696 73.74 5.15757 70.2053 4.70147 65.5682L0.0145242 17.9174C-0.0689333 17.0693 0.209943 16.2253 0.782309 15.5939C1.35468 14.9625 2.16723 14.6024 3.01944 14.6024H23.0814L26.1362 6.21754C27.4395 2.64046 30.8402 0.26001 34.6471 0.26001H44.3476C46.0155 0.26001 47.367 1.61188 47.367 3.27946C47.367 4.94703 46.0155 6.2989 44.3476 6.2989H34.6471Z" fill="white"/>
</svg>
