<svg width="244" height="326" viewBox="0 0 244 326" fill="none" xmlns="http://www.w3.org/2000/svg">
<path d="M67.9101 152.88C120.75 152.21 175.57 124.92 210.7 101.27C209.73 48.3 170.18 5.77 121.77 6.51C74.3301 7.24 35.3201 50.13 35.3201 102.48C35.3201 116.01 39.0501 132.87 44.9701 151.22C51.7101 152.35 59.3201 152.99 67.9101 152.88Z" stroke="white" stroke-width="12" stroke-miterlimit="10"/>
<path d="M85.28 181.14C76.08 184.28 67.16 186.5 58.74 188.01C80.48 240.23 110.99 294.89 121.31 317.4C122.77 320.58 126.89 320.54 128.3 317.33C143.41 282.79 203.61 166.28 210.14 112.02C199.57 120 143.29 161.31 85.28 181.13V181.14Z" stroke="white" stroke-width="12" stroke-miterlimit="10"/>
<path fill-rule="evenodd" clip-rule="evenodd" d="M175.88 66.71C175.88 66.61 175.88 66.52 175.88 66.42C175.88 62.47 172.03 59.26 167.28 59.26C162.53 59.26 158.68 62.47 158.68 66.42C158.68 66.49 158.68 66.55 158.68 66.62C157.89 66.42 157.06 66.32 156.19 66.32C152.91 66.32 150.06 67.85 148.61 70.1C148.28 70.08 147.94 70.07 147.59 70.07C143.26 70.07 139.63 71.85 138.69 74.24C136.56 74.88 135.14 76 135.14 77.27C135.14 79.26 138.6 80.87 142.88 80.87C143.72 80.87 144.52 80.81 145.27 80.69C146.01 80.8 146.79 80.87 147.59 80.87C149.43 80.87 151.15 80.55 152.58 80C153.68 80.42 154.9 80.66 156.19 80.66C157.9 80.66 159.5 80.24 160.83 79.53C162.02 82.29 165.2 84.26 168.92 84.26C172.11 84.26 174.9 82.81 176.38 80.66C176.94 80.76 177.53 80.81 178.13 80.81C179.44 80.81 180.67 80.57 181.78 80.13C182.96 80.47 184.34 80.66 185.83 80.66C190.1 80.66 193.57 79.05 193.57 77.06C193.57 75.21 190.58 73.69 186.73 73.49C186.63 69.61 182.82 66.49 178.13 66.49C177.34 66.49 176.58 66.58 175.86 66.74L175.88 66.71Z" fill="white"/>
<path fill-rule="evenodd" clip-rule="evenodd" d="M66.2801 105.12C66.2801 105.02 66.2801 104.93 66.2801 104.83C66.2801 100.88 70.1301 97.67 74.8801 97.67C79.6301 97.67 83.4801 100.88 83.4801 104.83C83.4801 104.9 83.4801 104.96 83.4801 105.03C84.2701 104.83 85.1001 104.73 85.9701 104.73C89.2501 104.73 92.1001 106.26 93.5501 108.51C93.8801 108.49 94.2201 108.48 94.5701 108.48C98.9001 108.48 102.53 110.26 103.47 112.65C105.6 113.29 107.02 114.41 107.02 115.68C107.02 117.67 103.56 119.28 99.2801 119.28C98.4401 119.28 97.6401 119.22 96.8901 119.1C96.1501 119.21 95.3701 119.28 94.5701 119.28C92.7301 119.28 91.0101 118.96 89.5801 118.41C88.4801 118.83 87.2601 119.07 85.9701 119.07C84.2601 119.07 82.6601 118.65 81.3301 117.94C80.1401 120.7 76.9601 122.67 73.2401 122.67C70.0501 122.67 67.2601 121.22 65.7801 119.07C65.2201 119.17 64.6301 119.22 64.0301 119.22C62.7201 119.22 61.4901 118.98 60.3801 118.54C59.2001 118.88 57.8201 119.07 56.3301 119.07C52.0601 119.07 48.5901 117.46 48.5901 115.47C48.5901 113.62 51.5801 112.1 55.4301 111.9C55.5301 108.02 59.3401 104.9 64.0301 104.9C64.8201 104.9 65.5801 104.99 66.3001 105.15L66.2801 105.12Z" fill="white"/>
<mask id="mask0_60_1855" style="mask-type:luminance" maskUnits="userSpaceOnUse" x="38" y="117" width="176" height="205">
<path d="M172.08 218.78L171.92 218.36C188.77 216.96 205.21 215.54 205.39 215.29C205.73 214.84 183.18 175.66 177.81 166.33C177.27 165.4 175.96 165.34 175.34 166.21L160.31 187.16L135.22 119.74C134.38 117.48 131.22 117.37 130.22 119.57L88.93 210.8C85.4201 204.67 82.3601 199.37 80.7901 196.63C80.25 195.7 78.94 195.64 78.32 196.51L38.8 251.59C38.8 251.59 55.29 250.28 72.21 248.88L50.55 299.12L118.98 321.93L213.96 297.42L172.09 218.78H172.08Z" fill="white"/>
</mask>
<g mask="url(#mask0_60_1855)">
<path d="M67.9101 152.88C120.75 152.21 175.57 124.92 210.7 101.27C209.73 48.3 170.18 5.77 121.77 6.51C74.3301 7.24 35.3201 50.13 35.3201 102.48C35.3201 116.01 39.0501 132.87 44.9701 151.22C51.7101 152.35 59.3201 152.99 67.9101 152.88Z" fill="white"/>
<path d="M85.28 181.14C76.08 184.28 67.16 186.5 58.74 188.01C80.48 240.23 110.99 294.89 121.31 317.4C122.77 320.58 126.89 320.54 128.3 317.33C143.41 282.79 203.61 166.28 210.14 112.02C199.57 120 143.29 161.31 85.28 181.13V181.14Z" fill="white"/>
</g>
<path d="M206.41 96.02C204.33 100.69 192.69 110.87 180.98 115.75C180.98 115.75 191.21 116 193.59 115.24C196.55 114.3 197.35 111.93 200.5 108.75C203.69 105.53 202.8 106.63 208.22 106.18C213.64 105.73 230.07 99.68 230.98 83.6C230.98 83.6 239.68 82.22 239.8 73.49C239.8 73.49 242.75 73.31 243.53 70.84C243.53 70.84 241.54 71.74 239.56 71.74C239.56 71.74 236.01 67.71 229.02 69.69C222.03 71.67 220.23 76.55 220.23 76.55C220.23 76.55 209.33 80.76 200.72 79.68C192.11 78.6 185.91 77.63 182 75.29C182 75.29 185.49 85.34 193.98 86.31C193.98 86.31 194.88 90.7 198.8 90.95C198.8 90.95 199.46 96.37 206.41 96.02Z" fill="white"/>
<path d="M0.679932 125.65C0.679932 125.65 55.4899 196.46 213.45 96.37C213.45 96.37 46.9799 232.54 0.679932 125.65Z" fill="white"/>
<path d="M0 181.97C0 181.97 50.38 211.25 210.04 112.18C210.04 112.18 33.36 248.69 0 181.97Z" fill="white"/>
</svg>
