<svg width="244" height="326" viewBox="0 0 244 326" fill="none" xmlns="http://www.w3.org/2000/svg">
<path d="M67.9101 152.38C120.75 151.71 175.57 124.42 210.7 100.77C209.73 47.7995 170.18 5.26951 121.77 6.00951C74.3301 6.73951 35.3201 49.6295 35.3201 101.98C35.3201 115.51 39.0501 132.37 44.9701 150.72C51.7101 151.85 59.3201 152.49 67.9101 152.38Z" stroke="#323544" stroke-width="12" stroke-miterlimit="10"/>
<path d="M85.28 180.64C76.08 183.78 67.16 186 58.74 187.51C80.48 239.73 110.99 294.39 121.31 316.9C122.77 320.08 126.89 320.04 128.3 316.83C143.41 282.29 203.61 165.78 210.14 111.52C199.57 119.5 143.29 160.81 85.28 180.63V180.64Z" stroke="#323544" stroke-width="12" stroke-miterlimit="10"/>
<path d="M175.38 66.0578V66.0581L174.754 66.9976L175.969 66.7276C176.655 66.5752 177.378 66.4895 178.13 66.4895C182.635 66.4895 186.139 69.4719 186.23 73.0024L186.242 73.4648L186.704 73.4888C188.577 73.5862 190.214 74.0041 191.364 74.5998C192.545 75.2111 193.07 75.9245 193.07 76.5595C193.07 77.2438 192.453 78.019 191.091 78.6524C189.769 79.2666 187.909 79.6595 185.83 79.6595C184.381 79.6595 183.048 79.4746 181.919 79.1491L181.755 79.1018L181.596 79.1647C180.546 79.5809 179.379 79.8095 178.13 79.8095C177.558 79.8095 176.997 79.7618 176.468 79.6673L176.151 79.6107L175.968 79.876C174.592 81.8746 171.966 83.2595 168.92 83.2595C165.362 83.2595 162.386 81.3761 161.289 78.8316L161.074 78.3325L160.595 78.5884C159.338 79.2592 157.819 79.6595 156.19 79.6595C154.962 79.6595 153.803 79.4311 152.758 79.0324L152.579 78.9641L152.401 79.0329C151.033 79.5589 149.374 79.8695 147.59 79.8695C146.819 79.8695 146.064 79.802 145.344 79.695L145.267 79.6836L145.191 79.6958C144.47 79.8112 143.697 79.8695 142.88 79.8695C140.796 79.8695 138.936 79.4765 137.616 78.8624C136.255 78.2294 135.64 77.4543 135.64 76.7695C135.64 76.3354 135.882 75.8657 136.437 75.4021C136.99 74.9398 137.811 74.5259 138.834 74.2184L139.067 74.1485L139.155 73.9225C139.562 72.8882 140.583 71.9226 142.083 71.2099C143.575 70.5017 145.49 70.0695 147.59 70.0695C147.931 70.0695 148.261 70.0793 148.58 70.0986L148.872 70.1163L149.03 69.8704C150.377 67.7808 153.058 66.3195 156.19 66.3195C157.022 66.3195 157.81 66.415 158.557 66.6042L159.18 66.7619V66.1195V66.1191V66.1187V66.1183V66.1179V66.1175V66.1171V66.1167V66.1162V66.1158V66.1154V66.115V66.1146V66.1142V66.1138V66.1134V66.113V66.1126V66.1122V66.1118V66.1114V66.111V66.1106V66.1101V66.1097V66.1093V66.1089V66.1085V66.1081V66.1077V66.1073V66.1069V66.1065V66.1061V66.1057V66.1053V66.1049V66.1045V66.1041V66.1037V66.1033V66.1029V66.1025V66.1021V66.1017V66.1013V66.1009V66.1005V66.1001V66.0997V66.0993V66.0989V66.0985V66.0981V66.0977V66.0973V66.0969V66.0965V66.0961V66.0957V66.0953V66.0949V66.0945V66.0941V66.0937V66.0933V66.0929V66.0925V66.0921V66.0917V66.0913V66.0909V66.0905V66.0901V66.0897V66.0893V66.0889V66.0886V66.0882V66.0878V66.0874V66.087V66.0866V66.0862V66.0858V66.0854V66.085V66.0846V66.0842V66.0838V66.0834V66.083V66.0826V66.0822V66.0819V66.0815V66.0811V66.0807V66.0803V66.0799V66.0795V66.0791V66.0787V66.0783V66.0779V66.0775V66.0772V66.0768V66.0764V66.076V66.0756V66.0752V66.0748V66.0744V66.074V66.0736V66.0733V66.0729V66.0725V66.0721V66.0717V66.0713V66.0709V66.0705V66.0701V66.0697V66.0694V66.069V66.0686V66.0682V66.0678V66.0674V66.067V66.0666V66.0663V66.0659V66.0655V66.0651V66.0647V66.0643V66.0639V66.0635V66.0632V66.0628V66.0624V66.062V66.0616V66.0612V66.0608V66.0605V66.0601V66.0597V66.0593V66.0589V66.0585V66.0581V66.0578V66.0574V66.057V66.0566V66.0562V66.0558V66.0554V66.0551V66.0547V66.0543V66.0539V66.0535V66.0531V66.0528V66.0524V66.052V66.0516V66.0512V66.0508V66.0505V66.0501V66.0497V66.0493V66.0489V66.0485V66.0481V66.0478V66.0474V66.047V66.0466V66.0462V66.0459V66.0455V66.0451V66.0447V66.0443V66.0439V66.0436V66.0432V66.0428V66.0424V66.042V66.0416V66.0413V66.0409V66.0405V66.0401V66.0397V66.0393V66.039V66.0386V66.0382V66.0378V66.0374V66.0371V66.0367V66.0363V66.0359V66.0355V66.0351V66.0348V66.0344V66.034V66.0336V66.0332V66.0329V66.0325V66.0321V66.0317V66.0313V66.031V66.0306V66.0302V66.0298V66.0294V66.029V66.0287V66.0283V66.0279V66.0275V66.0271V66.0268V66.0264V66.026V66.0256V66.0252V66.0249V66.0245V66.0241V66.0237V66.0233V66.0229V66.0226V66.0222V66.0218V66.0214V66.021V66.0207V66.0203V66.0199V66.0195V66.0191V66.0188V66.0184V66.018V66.0176V66.0172V66.0169V66.0165V66.0161V66.0157V66.0153V66.015V66.0146V66.0142V66.0138V66.0134V66.013V66.0127V66.0123V66.0119V66.0115V66.0111V66.0108V66.0104V66.01V66.0096V66.0092V66.0089V66.0085V66.0081V66.0077V66.0073V66.0069V66.0066V66.0062V66.0058V66.0054V66.005V66.0047V66.0043V66.0039V66.0035V66.0031V66.0028V66.0024V66.002V66.0016V66.0012V66.0008V66.0005V66.0001V65.9997V65.9993V65.9989V65.9985V65.9982V65.9978V65.9974V65.997V65.9966V65.9963V65.9959V65.9955V65.9951V65.9947V65.9943V65.994V65.9936V65.9932V65.9928V65.9924V65.992V65.9917V65.9913V65.9909V65.9905V65.9901V65.9897V65.9894V65.989V65.9886V65.9882V65.9878V65.9874V65.9871V65.9867V65.9863V65.9859V65.9855V65.9851V65.9848V65.9844V65.984V65.9836V65.9832V65.9828V65.9824V65.9821V65.9817V65.9813V65.9809V65.9805V65.9801V65.9797V65.9794V65.979V65.9786V65.9782V65.9778V65.9774V65.977V65.9767V65.9763V65.9759V65.9755V65.9751V65.9747V65.9743V65.9739V65.9736V65.9732V65.9728V65.9724V65.972V65.9716V65.9712V65.9708V65.9705V65.9701V65.9697V65.9693V65.9689V65.9685V65.9681V65.9677V65.9674V65.967V65.9666V65.9662V65.9658V65.9654V65.965V65.9646V65.9642V65.9638V65.9635V65.9631V65.9627V65.9623V65.9619V65.9615V65.9611V65.9607V65.9603V65.9599V65.9595V65.9591V65.9588V65.9584V65.958V65.9576V65.9572V65.9568V65.9564V65.956V65.9556V65.9552V65.9548V65.9544V65.954V65.9536V65.9533V65.9529V65.9525V65.9521V65.9517V65.9513V65.9509V65.9505V65.9501V65.9497V65.9493V65.9489V65.9485V65.9481V65.9477V65.9473V65.9469V65.9465V65.9461V65.9457V65.9453V65.9449V65.9445V65.9441V65.9438V65.9434V65.943V65.9426V65.9422V65.9418V65.9414V65.941V65.9406V65.9402V65.9398V65.9394V65.939V65.9386V65.9382V65.9378V65.9374V65.937V65.9366V65.9362V65.9358V65.9354V65.935V65.9345V65.9341V65.9337V65.9333V65.9329V65.9325V65.9321V65.9317V65.9313V65.9309V65.9305V65.9301V65.9297V65.9293V65.9289V65.9285V65.9281V65.9277V65.9273V65.9269V65.9265V65.9261V65.9256V65.9252V65.9248V65.9244V65.924V65.9236V65.9232V65.9228V65.9224V65.922V65.9216V65.9212V65.9208V65.9203V65.9199V65.9195C159.18 62.3274 162.717 59.2595 167.28 59.2595C171.843 59.2595 175.38 62.3274 175.38 65.9195V65.9201V65.9207V65.9213V65.9219V65.9224V65.923V65.9236V65.9242V65.9248V65.9254V65.926V65.9265V65.9271V65.9277V65.9283V65.9289V65.9295V65.93V65.9306V65.9312V65.9318V65.9324V65.9329V65.9335V65.9341V65.9347V65.9353V65.9358V65.9364V65.937V65.9376V65.9382V65.9387V65.9393V65.9399V65.9405V65.9411V65.9416V65.9422V65.9428V65.9434V65.9439V65.9445V65.9451V65.9457V65.9462V65.9468V65.9474V65.948V65.9486V65.9491V65.9497V65.9503V65.9509V65.9514V65.952V65.9526V65.9531V65.9537V65.9543V65.9549V65.9554V65.956V65.9566V65.9572V65.9577V65.9583V65.9589V65.9595V65.96V65.9606V65.9612V65.9617V65.9623V65.9629V65.9635V65.964V65.9646V65.9652V65.9657V65.9663V65.9669V65.9675V65.968V65.9686V65.9692V65.9697V65.9703V65.9709V65.9714V65.972V65.9726V65.9731V65.9737V65.9743V65.9748V65.9754V65.976V65.9766V65.9771V65.9777V65.9783V65.9788V65.9794V65.98V65.9805V65.9811V65.9817V65.9822V65.9828V65.9834V65.9839V65.9845V65.9851V65.9856V65.9862V65.9867V65.9873V65.9879V65.9884V65.989V65.9896V65.9901V65.9907V65.9913V65.9918V65.9924V65.993V65.9935V65.9941V65.9947V65.9952V65.9958V65.9963V65.9969V65.9975V65.998V65.9986V65.9992V65.9997V66.0003V66.0008V66.0014V66.002V66.0025V66.0031V66.0037V66.0042V66.0048V66.0053V66.0059V66.0065V66.007V66.0076V66.0081V66.0087V66.0093V66.0098V66.0104V66.011V66.0115V66.0121V66.0126V66.0132V66.0138V66.0143V66.0149V66.0154V66.016V66.0166V66.0171V66.0177V66.0182V66.0188V66.0194V66.0199V66.0205V66.021V66.0216V66.0222V66.0227V66.0233V66.0238V66.0244V66.0249V66.0255V66.0261V66.0266V66.0272V66.0277V66.0283V66.0289V66.0294V66.03V66.0305V66.0311V66.0316V66.0322V66.0328V66.0333V66.0339V66.0344V66.035V66.0356V66.0361V66.0367V66.0372V66.0378V66.0383V66.0389V66.0395V66.04V66.0406V66.0411V66.0417V66.0422V66.0428V66.0434V66.0439V66.0445V66.045V66.0456V66.0461V66.0467V66.0473V66.0478V66.0484V66.0489V66.0495V66.05V66.0506V66.0512V66.0517V66.0523V66.0528V66.0534V66.0539V66.0545V66.0551V66.0556V66.0562V66.0567V66.0573V66.0578Z" fill="#323544" stroke="#323544"/>
<path d="M66.7801 104.468V104.468V104.467V104.467V104.466V104.466V104.465V104.464V104.464V104.463V104.463V104.462V104.462V104.461V104.461V104.46V104.459V104.459V104.458V104.458V104.457V104.457V104.456V104.456V104.455V104.454V104.454V104.453V104.453V104.452V104.452V104.451V104.451V104.45V104.449V104.449V104.448V104.448V104.447V104.447V104.446V104.446V104.445V104.444V104.444V104.443V104.443V104.442V104.442V104.441V104.441V104.44V104.439V104.439V104.438V104.438V104.437V104.437V104.436V104.435V104.435V104.434V104.434V104.433V104.433V104.432V104.432V104.431V104.43V104.43V104.429V104.429V104.428V104.428V104.427V104.427V104.426V104.425V104.425V104.424V104.424V104.423V104.423V104.422V104.421V104.421V104.42V104.42V104.419V104.419V104.418V104.418V104.417V104.416V104.416V104.415V104.415V104.414V104.414V104.413V104.413V104.412V104.411V104.411V104.41V104.41V104.409V104.409V104.408V104.407V104.407V104.406V104.406V104.405V104.405V104.404V104.403V104.403V104.402V104.402V104.401V104.401V104.4V104.4V104.399V104.398V104.398V104.397V104.397V104.396V104.396V104.395V104.394V104.394V104.393V104.393V104.392V104.392V104.391V104.39V104.39V104.389V104.389V104.388V104.388V104.387V104.387V104.386V104.385V104.385V104.384V104.384V104.383V104.383V104.382V104.381V104.381V104.38V104.38V104.379V104.379V104.378V104.377V104.377V104.376V104.376V104.375V104.375V104.374V104.373V104.373V104.372V104.372V104.371V104.371V104.37V104.369V104.369V104.368V104.368V104.367V104.367V104.366V104.365V104.365V104.364V104.364V104.363V104.363V104.362V104.361V104.361V104.36V104.36V104.359V104.359V104.358V104.357V104.357V104.356V104.356V104.355V104.354V104.354V104.353V104.353V104.352V104.352V104.351V104.35V104.35V104.349V104.349V104.348V104.348V104.347V104.346V104.346V104.345V104.345V104.344V104.343V104.343V104.342V104.342V104.341V104.341V104.34V104.339V104.339V104.338V104.338V104.337V104.337V104.336V104.335V104.335V104.334V104.334V104.333V104.332V104.332V104.331V104.331V104.33V104.329C66.7801 100.737 70.3168 97.6695 74.8801 97.6695C79.4434 97.6695 82.9801 100.737 82.9801 104.329V104.33V104.33V104.331V104.331V104.332V104.332V104.332V104.333V104.333V104.334V104.334V104.334V104.335V104.335V104.336V104.336V104.336V104.337V104.337V104.338V104.338V104.338V104.339V104.339V104.34V104.34V104.34V104.341V104.341V104.342V104.342V104.343V104.343V104.343V104.344V104.344V104.345V104.345V104.345V104.346V104.346V104.347V104.347V104.347V104.348V104.348V104.349V104.349V104.349V104.35V104.35V104.351V104.351V104.351V104.352V104.352V104.353V104.353V104.353V104.354V104.354V104.355V104.355V104.355V104.356V104.356V104.357V104.357V104.357V104.358V104.358V104.358V104.359V104.359V104.36V104.36V104.36V104.361V104.361V104.362V104.362V104.362V104.363V104.363V104.364V104.364V104.364V104.365V104.365V104.366V104.366V104.366V104.367V104.367V104.368V104.368V104.368V104.369V104.369V104.37V104.37V104.37V104.371V104.371V104.371V104.372V104.372V104.373V104.373V104.373V104.374V104.374V104.375V104.375V104.375V104.376V104.376V104.377V104.377V104.377V104.378V104.378V104.378V104.379V104.379V104.38V104.38V104.38V104.381V104.381V104.382V104.382V104.382V104.383V104.383V104.384V104.384V104.384V104.385V104.385V104.385V104.386V104.386V104.387V104.387V104.387V104.388V104.388V104.389V104.389V104.389V104.39V104.39V104.39V104.391V104.391V104.392V104.392V104.392V104.393V104.393V104.394V104.394V104.394V104.395V104.395V104.395V104.396V104.396V104.397V104.397V104.397V104.398V104.398V104.399V104.399V104.399V104.4V104.4V104.4V104.401V104.401V104.402V104.402V104.402V104.403V104.403V104.404V104.404V104.404V104.405V104.405V104.405V104.406V104.406V104.407V104.407V104.407V104.408V104.408V104.409V104.409V104.409V104.41V104.41V104.41V104.411V104.411V104.412V104.412V104.412V104.413V104.413V104.413V104.414V104.414V104.415V104.415V104.415V104.416V104.416V104.417V104.417V104.417V104.418V104.418V104.418V104.419V104.419V104.42V104.42V104.42V104.421V104.421V104.421V104.422V104.422V104.423V104.423V104.423V104.424V104.424V104.425V104.425V104.425V104.426V104.426V104.426V104.427V104.427V104.428V104.428V104.428V104.429V104.429V104.429V104.43V104.43V104.431V104.431V104.431V104.432V104.432V104.433V104.433V104.433V104.434V104.434V104.434V104.435V104.435V104.436V104.436V104.436V104.437V104.437V104.437V104.438V104.438V104.439V104.439V104.439V104.44V104.44V104.441V104.441V104.441V104.442V104.442V104.442V104.443V104.443V104.444V104.444V104.444V104.445V104.445V104.446V104.446V104.446V104.447V104.447V104.447V104.448V104.448V104.449V104.449V104.449V104.45V104.45V104.45V104.451V104.451V104.452V104.452V104.452V104.453V104.453V104.454V104.454V104.454V104.455V104.455V104.455V104.456V104.456V104.457V104.457V104.457V104.458V104.458V104.459V104.459V104.459V104.46V104.46V104.46V104.461V104.461V104.462V104.462V104.462V104.463V104.463V104.463V104.464V104.464V104.465V104.465V104.465V104.466V104.466V104.467V104.467V104.467V104.468V104.468V104.469V104.469V104.469V104.47V104.47V104.47V104.471V104.471V104.472V104.472V104.472V104.473V104.473V104.474V104.474V104.474V104.475V104.475V104.475V104.476V104.476V104.477V104.477V104.477V104.478V104.478V104.479V104.479V104.479V104.48V104.48V104.481V104.481V104.481V104.482V104.482V104.482V104.483V104.483V104.484V104.484V104.484V104.485V104.485V104.486V104.486V104.486V104.487V104.487V104.488V104.488V104.488V104.489V104.489V104.489V104.49V104.49V104.491V104.491V104.491V104.492V104.492V104.493V104.493V104.493V104.494V104.494V104.495V104.495V104.495V104.496V104.496V104.497V104.497V104.497V104.498V104.498V104.499V104.499V104.499V104.5V104.5V104.501V104.501V104.501V104.502V104.502V104.502V104.503V104.503V104.504V104.504V104.504V104.505V104.505V104.506V104.506V104.506V104.507V104.507V104.508V104.508V104.508V104.509V104.509V104.51V104.51V104.51V104.511V104.511V104.512V104.512V104.512V104.513V104.513V104.514V104.514V104.514V104.515V104.515V104.516V104.516V104.516V104.517V104.517V104.518V104.518V104.519V104.519V104.519V104.52V104.52V104.521V104.521V104.521V104.522V104.522V104.523V104.523V104.523V104.524V104.524V104.525V104.525V104.525V104.526V104.526V104.527V104.527V104.527V104.528V104.528V104.529V104.529V104.529V105.172L83.6028 105.014C84.3501 104.825 85.1387 104.729 85.9701 104.729C89.1022 104.729 91.7832 106.191 93.1298 108.28L93.2883 108.526L93.5803 108.509C93.8997 108.489 94.2296 108.479 94.5701 108.479C96.67 108.479 98.5854 108.912 100.077 109.62C101.578 110.333 102.598 111.298 103.005 112.333L103.094 112.558L103.326 112.628C104.35 112.936 105.17 113.35 105.723 113.812C106.279 114.276 106.52 114.745 106.52 115.179C106.52 115.864 105.905 116.639 104.544 117.272C103.224 117.886 101.364 118.279 99.2801 118.279C98.4636 118.279 97.6902 118.221 96.9691 118.106L96.8929 118.094L96.8166 118.105C96.0963 118.212 95.3412 118.279 94.5701 118.279C92.7859 118.279 91.1273 117.969 89.7596 117.443L89.5807 117.374L89.4017 117.442C88.3575 117.841 87.1979 118.069 85.9701 118.069C84.3411 118.069 82.8221 117.669 81.5656 116.998L81.0861 116.742L80.8709 117.242C79.7739 119.786 76.798 121.669 73.2401 121.669C70.1944 121.669 67.5677 120.285 66.1919 118.286L66.0093 118.021L65.6922 118.077C65.1632 118.172 64.6027 118.219 64.0301 118.219C62.7816 118.219 61.6142 117.991 60.5643 117.575L60.4057 117.512L60.2417 117.559C59.112 117.885 57.7791 118.069 56.3301 118.069C54.2511 118.069 52.3911 117.677 51.0696 117.062C49.7068 116.429 49.0901 115.654 49.0901 114.969C49.0901 114.334 49.6157 113.621 50.7962 113.01C51.9466 112.414 53.5829 111.996 55.456 111.899L55.918 111.875L55.9299 111.412C56.0209 107.882 59.5253 104.899 64.0301 104.899C64.782 104.899 65.5056 104.985 66.1916 105.138L67.4066 105.408L66.7801 104.468Z" fill="#323544" stroke="#323544"/>
<mask id="mask0_60_1874" style="mask-type:luminance" maskUnits="userSpaceOnUse" x="38" y="117" width="176" height="205">
<path d="M171.735 218.779L171.613 218.457L171.453 218.037L171.216 217.416L171.879 217.361C180.303 216.661 188.625 215.956 194.861 215.395C197.98 215.115 200.576 214.87 202.402 214.68C203.316 214.585 204.033 214.505 204.526 214.44C204.593 214.431 204.654 214.423 204.712 214.415C204.568 214.115 204.356 213.697 204.08 213.172C203.488 212.044 202.617 210.444 201.542 208.504C199.393 204.624 196.44 199.395 193.307 193.887C187.041 182.87 180.062 170.744 177.377 166.079C177.018 165.464 176.155 165.427 175.747 166L175.746 166.001L160.716 186.951L160.169 187.714L159.841 186.834L134.751 119.414L134.751 119.414C134.068 117.574 131.492 117.481 130.676 119.276L171.735 218.779ZM171.735 218.779H171.79L213.22 296.594L118.998 320.908L51.2248 298.317L72.6692 248.577L72.999 247.813L72.1688 247.881C63.7093 248.581 55.3572 249.259 49.1199 249.761C46.0013 250.012 43.4114 250.22 41.6012 250.365C40.8851 250.422 40.291 250.469 39.8344 250.506L78.7263 196.301L78.7272 196.3C79.1353 195.727 79.9985 195.764 80.357 196.379C80.959 197.43 81.7769 198.852 82.7539 200.55C84.3325 203.293 86.3265 206.759 88.4961 210.548L88.9822 211.397L89.3856 210.506L130.675 119.276L171.735 218.779Z" fill="white" stroke="white"/>
</mask>
<g mask="url(#mask0_60_1874)">
<path d="M210.195 100.507C175.087 124.101 120.487 151.213 67.9037 151.88C59.4698 151.988 51.9879 151.37 45.3526 150.276C39.4922 132.055 35.8201 115.36 35.8201 101.98C35.8201 49.8616 74.6502 7.23465 121.778 6.50945C169.784 5.77563 209.099 47.8909 210.195 100.507Z" fill="#323544" stroke="#323544"/>
<path d="M85.78 180.997L85.4415 181.113C76.4389 184.185 67.7036 186.379 59.4406 187.891C70.2556 213.801 83.2055 240.285 94.7537 263.12C98.7029 270.929 102.49 278.314 105.971 285.103C112.739 298.303 118.354 309.252 121.764 316.691M85.78 180.997L121.31 316.9M85.78 180.997V180.987V180.997ZM121.764 316.691L121.31 316.9M121.764 316.691C121.764 316.691 121.764 316.691 121.764 316.691L121.31 316.9M121.764 316.691C122.414 318.105 123.631 318.773 124.819 318.761C126.007 318.749 127.215 318.057 127.842 316.628M121.31 316.9C122.77 320.08 126.89 320.04 128.3 316.83M127.842 316.628C127.842 316.629 127.842 316.629 127.842 316.629L128.3 316.83M127.842 316.628L128.3 316.83M127.842 316.628L128.3 316.83M210.054 112.21C210.084 111.979 210.112 111.749 210.14 111.52C209.967 111.65 209.782 111.789 209.585 111.938C209.556 112.167 209.526 112.398 209.496 112.629C209.692 112.482 209.878 112.342 210.054 112.21ZM58.74 187.51C58.8056 187.667 58.8712 187.825 58.937 187.982L59.2437 187.418C59.0756 187.449 58.9077 187.479 58.74 187.51Z" fill="#323544" stroke="#323544"/>
</g>
<path d="M207.198 94.9792L206.867 95.7229C206.313 96.967 205.15 98.5274 203.572 100.226C201.986 101.935 199.952 103.814 197.62 105.695C193.511 109.011 188.455 112.351 183.267 114.783C184.165 114.79 185.253 114.792 186.387 114.78C187.81 114.763 189.302 114.723 190.583 114.641C191.884 114.557 192.91 114.432 193.438 114.263L193.439 114.263C194.795 113.832 195.662 113.08 196.597 112.006C196.89 111.669 197.195 111.292 197.527 110.884C198.236 110.009 199.064 108.988 200.145 107.898L200.5 108.249L200.145 107.898C201.702 106.326 202.388 105.659 203.419 105.437C203.886 105.336 204.417 105.329 205.086 105.319L205.169 105.318C205.894 105.308 206.841 105.292 208.179 105.181C210.792 104.964 216.168 103.374 220.996 99.847C225.809 96.331 230.036 90.9234 230.481 83.0712L230.504 82.6688L230.901 82.6057L230.901 82.6057L230.901 82.6057L230.902 82.6057L230.904 82.6052L230.919 82.6027C230.933 82.6003 230.954 82.5964 230.983 82.5908C231.042 82.5797 231.129 82.5618 231.242 82.5359C231.468 82.4839 231.794 82.3997 232.187 82.272C232.974 82.0159 234.022 81.5877 235.071 80.9001C237.154 79.5341 239.243 77.1468 239.3 72.9826L239.306 72.5187L207.198 94.9792ZM207.198 94.9792L206.385 95.0201C203.064 95.1874 201.32 93.984 200.391 92.8062C199.918 92.2055 199.642 91.593 199.485 91.1303C199.407 90.8995 199.359 90.708 199.331 90.5769C199.317 90.5114 199.308 90.4612 199.302 90.4289C199.3 90.4128 199.298 90.4012 199.297 90.3944L199.296 90.389L199.296 90.3885L199.296 90.3881L199.296 90.388L199.296 90.3876L199.246 89.9769L198.832 89.9505C197.085 89.8391 196.005 88.8145 195.342 87.7682C195.01 87.2441 194.79 86.7242 194.654 86.3339C194.586 86.1395 194.539 85.9792 194.509 85.8693C194.495 85.8144 194.484 85.7722 194.478 85.7448L194.471 85.715L194.47 85.7091L194.47 85.709L194.47 85.7087L194.47 85.7085L194.47 85.7082L194.397 85.3539L194.037 85.3127C189.989 84.8503 187.104 82.2203 185.209 79.6398C184.265 78.354 183.579 77.0957 183.129 76.1585C183.084 76.0663 183.042 75.9773 183.003 75.8918C184.807 76.7542 186.973 77.4039 189.492 77.9458C192.631 78.6209 196.353 79.1357 200.658 79.6756C205.053 80.2269 210 79.4277 213.821 78.5055C215.737 78.0431 217.382 77.5467 218.548 77.1657C219.131 76.9752 219.595 76.8134 219.914 76.6989C220.073 76.6416 220.196 76.5962 220.28 76.565C220.322 76.5493 220.354 76.5372 220.376 76.529L220.401 76.5195L220.407 76.5169L220.409 76.5162L220.41 76.516C220.41 76.516 220.41 76.5159 220.23 76.0495L220.41 76.5159L220.621 76.4345L220.699 76.2237L220.699 76.2233L220.699 76.2231L220.699 76.223L220.699 76.2225L220.701 76.2169C220.704 76.2104 220.708 76.1995 220.714 76.1843C220.727 76.1539 220.747 76.1066 220.776 76.0441C220.833 75.9191 220.924 75.7339 221.055 75.5034C221.318 75.0421 221.74 74.4004 222.375 73.6969C223.642 72.2929 225.76 70.6327 229.156 69.6706C232.534 68.7138 235.051 69.2139 236.713 69.9311C237.548 70.2914 238.174 70.7094 238.587 71.0341C238.794 71.1964 238.948 71.335 239.047 71.4308C239.097 71.4787 239.134 71.5159 239.157 71.5399C239.168 71.5519 239.176 71.5606 239.181 71.5657L239.185 71.57L239.185 71.5704L239.185 71.5707L239.185 71.5707L239.186 71.5711L239.334 71.7395H239.56C240.619 71.7395 241.664 71.5002 242.432 71.2681C242.434 71.2676 242.435 71.2671 242.437 71.2666C242.071 71.6698 241.619 71.9434 241.177 72.1303C240.8 72.2901 240.443 72.3811 240.179 72.4317C240.048 72.457 239.941 72.4719 239.869 72.4804C239.834 72.4847 239.806 72.4873 239.789 72.4888L239.771 72.4903L239.77 72.4904L239.769 72.4904L239.769 72.4905L239.768 72.4905L207.198 94.9792Z" fill="#323544" stroke="#323544"/>
<path d="M23.4089 154.176C15.1582 148.2 8.0138 139.61 2.42843 127.8C2.60639 127.977 2.79577 128.163 2.9967 128.357C4.82329 130.116 7.60435 132.51 11.4346 135.066C19.0967 140.177 30.952 145.93 47.7532 148.537C80.1978 153.573 131.012 146.872 205.614 101.333C200.991 104.827 194.422 109.635 186.435 115.062C170.118 126.149 147.891 139.811 124.228 150.135C100.553 160.463 75.4988 167.424 53.509 165.171C42.5228 164.046 32.3093 160.622 23.4089 154.176Z" fill="#323544" stroke="#323544"/>
<path d="M18.7601 197.152C11.2851 194.681 5.24194 190.004 1.13312 182.552C1.46298 182.689 1.85374 182.842 2.3075 183.005C4.0258 183.622 6.64669 184.386 10.2848 184.99C17.5612 186.197 28.902 186.759 45.2243 184.22C76.5827 179.342 126.339 163.015 201.017 117.797C196.193 121.333 189.563 126.096 181.629 131.555C164.553 143.304 141.442 158.272 117.295 171.153C93.1375 184.04 67.9843 194.817 46.8132 198.219C36.2294 199.919 26.6797 199.77 18.7601 197.152Z" fill="#323544" stroke="#323544"/>
</svg>
