<svg width="244" height="316" viewBox="0 0 244 316" fill="none" xmlns="http://www.w3.org/2000/svg">
<path d="M67.9101 146.88C120.75 146.21 175.57 118.92 210.7 95.27C209.73 42.3 170.18 -0.23 121.77 0.51C74.3301 1.24 35.3201 44.13 35.3201 96.48C35.3201 110.01 39.0501 126.87 44.9701 145.22C51.7101 146.35 59.3201 146.99 67.9101 146.88Z" fill="#96C1E2" stroke="#96C1E2" stroke-miterlimit="10"/>
<path d="M85.28 175.14C76.08 178.28 67.16 180.5 58.74 182.01C80.48 234.23 110.99 288.89 121.31 311.4C122.77 314.58 126.89 314.54 128.3 311.33C143.41 276.79 203.61 160.28 210.14 106.02C199.57 114 143.29 155.31 85.28 175.13V175.14Z" fill="#96C1E2" stroke="#96C1E2" stroke-miterlimit="10"/>
<path fill-rule="evenodd" clip-rule="evenodd" d="M175.88 60.71C175.88 60.61 175.88 60.52 175.88 60.42C175.88 56.47 172.03 53.26 167.28 53.26C162.53 53.26 158.68 56.47 158.68 60.42C158.68 60.49 158.68 60.55 158.68 60.62C157.89 60.42 157.06 60.32 156.19 60.32C152.91 60.32 150.06 61.85 148.61 64.1C148.28 64.08 147.94 64.07 147.59 64.07C143.26 64.07 139.63 65.85 138.69 68.24C136.56 68.88 135.14 70 135.14 71.27C135.14 73.26 138.6 74.87 142.88 74.87C143.72 74.87 144.52 74.81 145.27 74.69C146.01 74.8 146.79 74.87 147.59 74.87C149.43 74.87 151.15 74.55 152.58 74C153.68 74.42 154.9 74.66 156.19 74.66C157.9 74.66 159.5 74.24 160.83 73.53C162.02 76.29 165.2 78.26 168.92 78.26C172.11 78.26 174.9 76.81 176.38 74.66C176.94 74.76 177.53 74.81 178.13 74.81C179.44 74.81 180.67 74.57 181.78 74.13C182.96 74.47 184.34 74.66 185.83 74.66C190.1 74.66 193.57 73.05 193.57 71.06C193.57 69.21 190.58 67.69 186.73 67.49C186.63 63.61 182.82 60.49 178.13 60.49C177.34 60.49 176.58 60.58 175.86 60.74L175.88 60.71Z" fill="white"/>
<path fill-rule="evenodd" clip-rule="evenodd" d="M66.2801 99.12C66.2801 99.02 66.2801 98.93 66.2801 98.83C66.2801 94.88 70.1301 91.67 74.8801 91.67C79.6301 91.67 83.4801 94.88 83.4801 98.83C83.4801 98.9 83.4801 98.96 83.4801 99.03C84.2701 98.83 85.1001 98.73 85.9701 98.73C89.2501 98.73 92.1001 100.26 93.5501 102.51C93.8801 102.49 94.2201 102.48 94.5701 102.48C98.9001 102.48 102.53 104.26 103.47 106.65C105.6 107.29 107.02 108.41 107.02 109.68C107.02 111.67 103.56 113.28 99.2801 113.28C98.4401 113.28 97.6401 113.22 96.8901 113.1C96.1501 113.21 95.3701 113.28 94.5701 113.28C92.7301 113.28 91.0101 112.96 89.5801 112.41C88.4801 112.83 87.2601 113.07 85.9701 113.07C84.2601 113.07 82.6601 112.65 81.3301 111.94C80.1401 114.7 76.9601 116.67 73.2401 116.67C70.0501 116.67 67.2601 115.22 65.7801 113.07C65.2201 113.17 64.6301 113.22 64.0301 113.22C62.7201 113.22 61.4901 112.98 60.3801 112.54C59.2001 112.88 57.8201 113.07 56.3301 113.07C52.0601 113.07 48.5901 111.46 48.5901 109.47C48.5901 107.62 51.5801 106.1 55.4301 105.9C55.5301 102.02 59.3401 98.9 64.0301 98.9C64.8201 98.9 65.5801 98.99 66.3001 99.15L66.2801 99.12Z" fill="white"/>
<mask id="mask0_60_1836" style="mask-type:luminance" maskUnits="userSpaceOnUse" x="38" y="111" width="176" height="205">
<path d="M172.08 212.78L171.92 212.36C188.77 210.96 205.21 209.54 205.39 209.29C205.73 208.84 183.18 169.66 177.81 160.33C177.27 159.4 175.96 159.34 175.34 160.21L160.31 181.16L135.22 113.74C134.38 111.48 131.22 111.37 130.22 113.57L88.93 204.8C85.4201 198.67 82.3601 193.37 80.7901 190.63C80.25 189.7 78.94 189.64 78.32 190.51L38.8 245.59C38.8 245.59 55.29 244.28 72.21 242.88L50.55 293.12L118.98 315.93L213.96 291.42L172.09 212.78H172.08Z" fill="white"/>
</mask>
<g mask="url(#mask0_60_1836)">
<path d="M67.9101 146.88C120.75 146.21 175.57 118.92 210.7 95.27C209.73 42.3 170.18 -0.23 121.77 0.51C74.3301 1.24 35.3201 44.13 35.3201 96.48C35.3201 110.01 39.0501 126.87 44.9701 145.22C51.7101 146.35 59.3201 146.99 67.9101 146.88Z" fill="#6A94CD"/>
<path d="M85.28 175.14C76.08 178.28 67.16 180.5 58.74 182.01C80.48 234.23 110.99 288.89 121.31 311.4C122.77 314.58 126.89 314.54 128.3 311.33C143.41 276.79 203.61 160.28 210.14 106.02C199.57 114 143.29 155.31 85.28 175.13V175.14Z" fill="#6A94CD"/>
</g>
<path d="M206.41 90.02C204.33 94.69 192.69 104.87 180.98 109.75C180.98 109.75 191.21 110 193.59 109.24C196.55 108.3 197.35 105.93 200.5 102.75C203.69 99.53 202.8 100.63 208.22 100.18C213.64 99.73 230.07 93.68 230.98 77.6C230.98 77.6 239.68 76.22 239.8 67.49C239.8 67.49 242.75 67.31 243.53 64.84C243.53 64.84 241.54 65.74 239.56 65.74C239.56 65.74 236.01 61.71 229.02 63.69C222.03 65.67 220.23 70.55 220.23 70.55C220.23 70.55 209.33 74.76 200.72 73.68C192.11 72.6 185.91 71.63 182 69.29C182 69.29 185.49 79.34 193.98 80.31C193.98 80.31 194.88 84.7 198.8 84.95C198.8 84.95 199.46 90.37 206.41 90.02Z" fill="#087F93"/>
<path d="M0.679932 119.65C0.679932 119.65 55.4899 190.46 213.45 90.37C213.45 90.37 46.9799 226.54 0.679932 119.65Z" fill="#087F93"/>
<path d="M0 175.97C0 175.97 50.38 205.25 210.04 106.18C210.04 106.18 33.36 242.69 0 175.97Z" fill="#8CC63F"/>
</svg>
