<svg width="1443" height="864" viewBox="0 0 1443 864" fill="none" xmlns="http://www.w3.org/2000/svg">
<g clip-path="url(#clip0_70_459)">
<rect x="3" y="-81" width="1440" height="947" fill="white" fill-opacity="0.25"/>
<g clip-path="url(#clip1_70_459)">
<path d="M1477.9 -50.5501H-16.1548V907.045H1477.9V-50.5501Z" fill="url(#paint0_linear_70_459)"/>
<path opacity="0.3" d="M-68 434.32C-68 434.32 173.063 824.86 1032 400C1032 400 110.203 1004.2 -68 434.32Z" fill="white"/>
<path opacity="0.15" d="M-69.9888 786.819C-69.9888 786.819 188.103 936.927 1006 429C1006 429 100.901 1128.92 -70 786.819H-69.9888Z" fill="white"/>
<path d="M445.564 172L-114 170.442V81.9982C-99.6397 88.1875 -86.6318 98.7858 -78.8382 112.611C-73.3171 110.956 -67.4475 110.942 -61.9264 112.611C-45.6143 71.2191 8.11839 42.2061 47.8253 69.411C95.9951 13.4294 185.726 2.83115 231.944 66.8797C240.03 77.5753 246.486 89.5366 251.463 102.054C252.021 103.89 253.094 105.17 255.06 106.352C262.017 110.121 270.87 117.214 273.519 129.607C305.921 139.454 302.449 170.053 307.621 158.092C325.398 112.124 400.113 97.075 416.467 151.888C428.053 148.314 456.439 156.311 445.564 171.972V172Z" fill="white"/>
<path d="M928 759.987C961.281 706.65 1006.05 686.436 1055.02 737.619C1067.73 723.318 1092.31 723.278 1102.74 740.255C1104.5 742.074 1106.38 744.99 1108.91 745.191C1141.51 744.241 1127.83 750.114 1141.76 723.947C1155.57 701.312 1186.25 692.295 1210.12 703.533C1220 690.275 1235.34 680.684 1252.1 681.58C1263.2 641.286 1288.85 603.922 1325.55 583.588C1376.3 556.111 1436.65 560.418 1467.95 614.33C1476.58 605.581 1490.29 606.558 1499 614.691V758.435C1337.68 757.873 933.274 759.987 928.013 760L928 759.987Z" fill="white"/>
</g>
<rect y="-5" width="1440" height="795" fill="white" fill-opacity="0.3"/>
</g>
<defs>
<linearGradient id="paint0_linear_70_459" x1="719.16" y1="-59.1596" x2="719.16" y2="904.682" gradientUnits="userSpaceOnUse">
<stop stop-color="#82B9D8"/>
<stop offset="1" stop-color="#B9F2F6"/>
</linearGradient>
<clipPath id="clip0_70_459">
<rect width="1443" height="864" fill="white"/>
</clipPath>
<clipPath id="clip1_70_459">
<rect width="1494" height="957" fill="white" transform="translate(-15 -53)"/>
</clipPath>
</defs>
</svg>
